<?xml version="1.0" standalone="no"?>
<!DOCTYPE svg PUBLIC "-//W3C//DTD SVG 20010904//EN"
 "http://www.w3.org/TR/2001/REC-SVG-20010904/DTD/svg10.dtd">
<svg version="1.0" xmlns="http://www.w3.org/2000/svg"
 width="500.000000pt" height="500.000000pt" viewBox="0 0 500.000000 500.000000"
 preserveAspectRatio="xMidYMid meet">
<metadata>
Created by potrace 1.14, written by Peter Selinger 2001-2017
</metadata>
<g transform="translate(0.000000,500.000000) scale(0.100000,-0.100000)"
fill="#000000" stroke="none">
<path d="M2569 4363 c-38 -99 -409 -1128 -409 -1135 0 -5 60 -7 132 -6 l133 3
211 583 211 582 -134 0 -133 0 -11 -27z"/>
<path d="M1687 4054 l-388 -195 3 -66 3 -67 378 -167 c207 -92 384 -169 392
-173 13 -5 15 12 15 108 l0 114 -241 98 c-141 57 -235 100 -227 104 7 4 115
54 241 111 l227 103 0 113 c0 62 -3 113 -7 112 -5 0 -183 -88 -396 -195z"/>
<path d="M2910 4137 l0 -114 231 -105 c127 -58 231 -109 232 -113 1 -4 -101
-49 -226 -101 -126 -51 -231 -95 -233 -97 -3 -2 -3 -54 -2 -115 l3 -111 387
172 388 172 0 70 0 70 -385 193 c-212 105 -387 192 -390 192 -3 0 -5 -51 -5
-113z"/>
<path d="M1030 1590 l0 -570 136 0 137 0 -7 378 c-3 207 -9 393 -12 412 -17
90 14 -7 116 -366 61 -214 113 -397 116 -407 5 -16 19 -17 152 -15 l147 3 111
395 c61 217 112 401 115 408 2 6 2 -172 0 -398 l-3 -410 141 0 141 0 0 570 0
570 -204 0 -205 0 -15 -52 c-8 -29 -60 -210 -115 -402 -56 -192 -103 -351
-105 -354 -3 -2 -12 22 -21 55 -9 32 -63 213 -119 403 l-101 345 -203 3 -202
2 0 -570z"/>
<path d="M2470 2148 c1 -7 63 -263 139 -568 l138 -555 181 -3 181 -2 10 37
c11 43 124 567 142 658 l12 60 23 -125 c18 -98 98 -474 129 -608 l5 -22 182 2
182 3 138 555 c75 305 137 561 138 568 0 10 -33 12 -147 10 l-147 -3 -72 -330
c-40 -181 -81 -375 -90 -429 l-18 -99 -33 174 c-18 96 -59 289 -91 429 l-58
255 -141 3 c-128 2 -142 1 -147 -15 -20 -70 -133 -576 -155 -698 l-28 -150
-17 95 c-9 52 -50 246 -90 430 l-73 335 -146 3 c-114 2 -147 0 -147 -10z"/>
</g>
</svg>
